<svg width="127" height="70" viewBox="0 0 127 70" fill="none" xmlns="http://www.w3.org/2000/svg">
<path d="M13.6934 1.40625H17.0859V19.5293C17.0859 21.9785 16.3477 23.8945 14.8711 25.2773C13.4062 26.6602 11.4492 27.3516 9 27.3516C6.45703 27.3516 4.47656 26.7012 3.05859 25.4004C1.64063 24.0996 0.931641 22.2773 0.931641 19.9336H4.30664C4.30664 21.3984 4.70508 22.541 5.50195 23.3613C6.31055 24.1816 7.47656 24.5918 9 24.5918C10.3945 24.5918 11.5195 24.1523 12.375 23.2734C13.2422 22.3945 13.6816 21.1641 13.6934 19.582V1.40625ZM29.3829 17.3145C29.3829 15.4512 29.7462 13.7754 30.4727 12.2871C31.211 10.7988 32.2305 9.65039 33.5313 8.8418C34.8438 8.0332 36.338 7.62891 38.0138 7.62891C40.6036 7.62891 42.6954 8.52539 44.2891 10.3184C45.8946 12.1113 46.6973 14.4961 46.6973 17.4727V17.7012C46.6973 19.5527 46.3399 21.2168 45.6251 22.6934C44.922 24.1582 43.9083 25.3008 42.5841 26.1211C41.2716 26.9414 39.7598 27.3516 38.0489 27.3516C35.4708 27.3516 33.379 26.4551 31.7735 24.6621C30.1798 22.8691 29.3829 20.4961 29.3829 17.543V17.3145ZM32.6524 17.7012C32.6524 19.8105 33.1388 21.5039 34.1114 22.7812C35.0958 24.0586 36.4083 24.6973 38.0489 24.6973C39.7013 24.6973 41.0138 24.0527 41.9864 22.7637C42.9591 21.4629 43.4454 19.6465 43.4454 17.3145C43.4454 15.2285 42.9473 13.541 41.9513 12.252C40.9669 10.9512 39.6544 10.3008 38.0138 10.3008C36.4083 10.3008 35.1134 10.9395 34.129 12.2168C33.1446 13.4941 32.6524 15.3223 32.6524 17.7012ZM66.3244 24.6973C67.4845 24.6973 68.4982 24.3457 69.3654 23.6426C70.2326 22.9395 70.713 22.0605 70.8068 21.0059H73.883C73.8244 22.0957 73.4494 23.1328 72.758 24.1172C72.0666 25.1016 71.1408 25.8867 69.9806 26.4727C68.8322 27.0586 67.6134 27.3516 66.3244 27.3516C63.7345 27.3516 61.672 26.4902 60.1369 24.7676C58.6134 23.0332 57.8517 20.666 57.8517 17.666V17.1211C57.8517 15.2695 58.1916 13.623 58.8713 12.1816C59.5509 10.7402 60.5236 9.62109 61.7892 8.82422C63.0666 8.02734 64.5724 7.62891 66.3068 7.62891C68.4396 7.62891 70.2091 8.26758 71.6154 9.54492C73.0334 10.8223 73.7892 12.4805 73.883 14.5195H70.8068C70.713 13.2891 70.2443 12.2812 69.4005 11.4961C68.5685 10.6992 67.5373 10.3008 66.3068 10.3008C64.6545 10.3008 63.3713 10.8984 62.4572 12.0938C61.5548 13.2773 61.1037 14.9941 61.1037 17.2441V17.8594C61.1037 20.0508 61.5548 21.7383 62.4572 22.9219C63.3595 24.1055 64.6486 24.6973 66.3244 24.6973ZM90.7678 18.1934L88.7288 20.3203V27H85.4768V0H88.7288V16.3301L90.469 14.2383L96.3928 7.98047H100.348L92.9475 15.9258L101.209 27H97.3948L90.7678 18.1934ZM119.166 27.3516C116.588 27.3516 114.491 26.5078 112.873 24.8203C111.256 23.1211 110.448 20.8535 110.448 18.0176V17.4199C110.448 15.5332 110.805 13.8516 111.52 12.375C112.246 10.8867 113.254 9.72656 114.543 8.89453C115.844 8.05078 117.25 7.62891 118.762 7.62891C121.235 7.62891 123.157 8.44336 124.528 10.0723C125.899 11.7012 126.584 14.0332 126.584 17.0684V18.4219H113.7C113.746 20.2969 114.291 21.8145 115.334 22.9746C116.389 24.123 117.725 24.6973 119.342 24.6973C120.491 24.6973 121.463 24.4629 122.26 23.9941C123.057 23.5254 123.754 22.9043 124.352 22.1309L126.338 23.6777C124.744 26.127 122.354 27.3516 119.166 27.3516ZM118.762 10.3008C117.45 10.3008 116.348 10.7812 115.457 11.7422C114.567 12.6914 114.016 14.0273 113.805 15.75H123.332V15.5039C123.239 13.8516 122.793 12.5742 121.996 11.6719C121.2 10.7578 120.121 10.3008 118.762 10.3008ZM6.36328 66.2402H18.4922V69H2.9707V43.4062H6.36328V66.2402ZM33.5742 69C33.3867 68.625 33.2344 67.957 33.1172 66.9961C31.6055 68.5664 29.8008 69.3516 27.7031 69.3516C25.8281 69.3516 24.2871 68.8242 23.0801 67.7695C21.8848 66.7031 21.2871 65.3555 21.2871 63.7266C21.2871 61.7461 22.0371 60.2109 23.5371 59.1211C25.0488 58.0195 27.1699 57.4688 29.9004 57.4688H33.0645V55.9746C33.0645 54.8379 32.7246 53.9355 32.0449 53.2676C31.3652 52.5879 30.3633 52.248 29.0391 52.248C27.8789 52.248 26.9062 52.541 26.1211 53.127C25.3359 53.7129 24.9434 54.4219 24.9434 55.2539H21.6738C21.6738 54.3047 22.0078 53.3906 22.6758 52.5117C23.3555 51.6211 24.2695 50.918 25.418 50.4023C26.5781 49.8867 27.8496 49.6289 29.2324 49.6289C31.4238 49.6289 33.1406 50.1797 34.3828 51.2812C35.625 52.3711 36.2695 53.877 36.3164 55.7988V64.5527C36.3164 66.2988 36.5391 67.6875 36.9844 68.7188V69H33.5742ZM28.1777 66.5215C29.1973 66.5215 30.1641 66.2578 31.0781 65.7305C31.9922 65.2031 32.6543 64.5176 33.0645 63.6738V59.7715H30.5156C26.5312 59.7715 24.5391 60.9375 24.5391 63.2695C24.5391 64.2891 24.8789 65.0859 25.5586 65.6602C26.2383 66.2344 27.1113 66.5215 28.1777 66.5215ZM50.6074 52.8984C50.1152 52.8164 49.582 52.7754 49.0078 52.7754C46.875 52.7754 45.4277 53.6836 44.666 55.5V69H41.4141V49.9805H44.5781L44.6309 52.1777C45.6973 50.4785 47.209 49.6289 49.166 49.6289C49.7988 49.6289 50.2793 49.7109 50.6074 49.875V52.8984ZM64.6875 63.9551C64.6875 63.0762 64.3535 62.3965 63.6855 61.916C63.0293 61.4238 61.875 61.002 60.2227 60.6504C58.582 60.2988 57.2754 59.877 56.3027 59.3848C55.3418 58.8926 54.627 58.3066 54.1582 57.627C53.7012 56.9473 53.4727 56.1387 53.4727 55.2012C53.4727 53.6426 54.1289 52.3242 55.4414 51.2461C56.7656 50.168 58.4531 49.6289 60.5039 49.6289C62.6602 49.6289 64.4062 50.1855 65.7422 51.2988C67.0898 52.4121 67.7637 53.8359 67.7637 55.5703H64.4941C64.4941 54.6797 64.1133 53.9121 63.3516 53.2676C62.6016 52.623 61.6523 52.3008 60.5039 52.3008C59.3203 52.3008 58.3945 52.5586 57.7266 53.0742C57.0586 53.5898 56.7246 54.2637 56.7246 55.0957C56.7246 55.8809 57.0352 56.4727 57.6562 56.8711C58.2773 57.2695 59.3965 57.6504 61.0137 58.0137C62.6426 58.377 63.9609 58.8105 64.9688 59.3145C65.9766 59.8184 66.7207 60.4277 67.2012 61.1426C67.6934 61.8457 67.9395 62.707 67.9395 63.7266C67.9395 65.4258 67.2598 66.791 65.9004 67.8223C64.541 68.8418 62.7773 69.3516 60.6094 69.3516C59.0859 69.3516 57.7383 69.082 56.5664 68.543C55.3945 68.0039 54.4746 67.2539 53.8066 66.293C53.1504 65.3203 52.8223 64.2715 52.8223 63.1465H56.0742C56.1328 64.2363 56.5664 65.1035 57.375 65.748C58.1953 66.3809 59.2734 66.6973 60.6094 66.6973C61.8398 66.6973 62.8242 66.4512 63.5625 65.959C64.3125 65.4551 64.6875 64.7871 64.6875 63.9551ZM83.25 63.9551C83.25 63.0762 82.916 62.3965 82.248 61.916C81.5918 61.4238 80.4375 61.002 78.7852 60.6504C77.1445 60.2988 75.8379 59.877 74.8652 59.3848C73.9043 58.8926 73.1895 58.3066 72.7207 57.627C72.2637 56.9473 72.0352 56.1387 72.0352 55.2012C72.0352 53.6426 72.6914 52.3242 74.0039 51.2461C75.3281 50.168 77.0156 49.6289 79.0664 49.6289C81.2227 49.6289 82.9688 50.1855 84.3047 51.2988C85.6523 52.4121 86.3262 53.8359 86.3262 55.5703H83.0566C83.0566 54.6797 82.6758 53.9121 81.9141 53.2676C81.1641 52.623 80.2148 52.3008 79.0664 52.3008C77.8828 52.3008 76.957 52.5586 76.2891 53.0742C75.6211 53.5898 75.2871 54.2637 75.2871 55.0957C75.2871 55.8809 75.5977 56.4727 76.2188 56.8711C76.8398 57.2695 77.959 57.6504 79.5762 58.0137C81.2051 58.377 82.5234 58.8105 83.5312 59.3145C84.5391 59.8184 85.2832 60.4277 85.7637 61.1426C86.2559 61.8457 86.502 62.707 86.502 63.7266C86.502 65.4258 85.8223 66.791 84.4629 67.8223C83.1035 68.8418 81.3398 69.3516 79.1719 69.3516C77.6484 69.3516 76.3008 69.082 75.1289 68.543C73.957 68.0039 73.0371 67.2539 72.3691 66.293C71.7129 65.3203 71.3848 64.2715 71.3848 63.1465H74.6367C74.6953 64.2363 75.1289 65.1035 75.9375 65.748C76.7578 66.3809 77.8359 66.6973 79.1719 66.6973C80.4023 66.6973 81.3867 66.4512 82.125 65.959C82.875 65.4551 83.25 64.7871 83.25 63.9551ZM89.877 59.3145C89.877 57.4512 90.2402 55.7754 90.9668 54.2871C91.7051 52.7988 92.7246 51.6504 94.0254 50.8418C95.3379 50.0332 96.832 49.6289 98.5078 49.6289C101.098 49.6289 103.189 50.5254 104.783 52.3184C106.389 54.1113 107.191 56.4961 107.191 59.4727V59.7012C107.191 61.5527 106.834 63.2168 106.119 64.6934C105.416 66.1582 104.402 67.3008 103.078 68.1211C101.766 68.9414 100.254 69.3516 98.543 69.3516C95.9648 69.3516 93.873 68.4551 92.2676 66.6621C90.6738 64.8691 89.877 62.4961 89.877 59.543V59.3145ZM93.1465 59.7012C93.1465 61.8105 93.6328 63.5039 94.6055 64.7812C95.5898 66.0586 96.9023 66.6973 98.543 66.6973C100.195 66.6973 101.508 66.0527 102.48 64.7637C103.453 63.4629 103.939 61.6465 103.939 59.3145C103.939 57.2285 103.441 55.541 102.445 54.252C101.461 52.9512 100.148 52.3008 98.5078 52.3008C96.9023 52.3008 95.6074 52.9395 94.623 54.2168C93.6387 55.4941 93.1465 57.3223 93.1465 59.7012ZM114.346 49.9805L114.451 52.3711C115.904 50.543 117.803 49.6289 120.146 49.6289C124.166 49.6289 126.193 51.8965 126.229 56.4316V69H122.977V56.4141C122.965 55.043 122.648 54.0293 122.027 53.373C121.418 52.7168 120.463 52.3887 119.162 52.3887C118.107 52.3887 117.182 52.6699 116.385 53.2324C115.588 53.7949 114.967 54.5332 114.521 55.4473V69H111.27V49.9805H114.346Z" fill="white"/>
</svg>
